<svg width="18" height="18" viewBox="0 0 18 18" fill="none" xmlns="http://www.w3.org/2000/svg">
<path fill-rule="evenodd" clip-rule="evenodd" d="M8.99999 17.3333C13.6023 17.3333 17.3333 13.6023 17.3333 8.99999C17.3333 4.39761 13.6023 0.666656 8.99999 0.666656C4.39761 0.666656 0.666656 4.39761 0.666656 8.99999C0.666656 13.6023 4.39761 17.3333 8.99999 17.3333ZM8.99999 15.6667C12.6819 15.6667 15.6667 12.6819 15.6667 8.99999C15.6667 5.31809 12.6819 2.33332 8.99999 2.33332C5.31809 2.33332 2.33332 5.31809 2.33332 8.99999C2.33332 12.6819 5.31809 15.6667 8.99999 15.6667ZM8.16666 4.83332H6.49999V10.6667H12.3333V8.99999H8.16666V4.83332Z" fill="#2D2D2D"/>
</svg>
