<svg width="76" height="76" viewBox="0 0 76 76" fill="none" xmlns="http://www.w3.org/2000/svg">
<rect width="76" height="76" rx="38" fill="#FF5959"/>
<path fill-rule="evenodd" clip-rule="evenodd" d="M25.6528 46.4931C25.6528 48.6218 27.3784 50.3473 29.507 50.3473H47.4931C49.6218 50.3473 51.3473 48.6218 51.3473 46.4931V28.507C51.3473 26.3784 49.6218 24.6528 47.4931 24.6528H29.507C27.3784 24.6528 25.6528 26.3784 25.6528 28.507V46.4931ZM48.7779 46.4931C48.7779 47.2027 48.2027 47.7778 47.4932 47.7778H29.507C28.7975 47.7778 28.2223 47.2027 28.2223 46.4931V28.507C28.2223 27.7975 28.7975 27.2223 29.507 27.2223H35.9307V37.5143L39.0076 37.5144L41.0697 34.7561L43.1316 37.5144H46.2086L46.2084 27.2223H47.4932C48.2027 27.2223 48.7779 27.7975 48.7779 28.507V46.4931ZM38.5 27.2223H43.6389V34.0772L41.0696 30.6402L38.5 34.0774V27.2223Z" fill="#2D2D2D"/>
<mask id="mask0_3_104" style="mask-type:alpha" maskUnits="userSpaceOnUse" x="25" y="24" width="27" height="27">
<path fill-rule="evenodd" clip-rule="evenodd" d="M25.6528 46.4931C25.6528 48.6218 27.3784 50.3473 29.507 50.3473H47.4931C49.6218 50.3473 51.3473 48.6218 51.3473 46.4931V28.507C51.3473 26.3784 49.6218 24.6528 47.4931 24.6528H29.507C27.3784 24.6528 25.6528 26.3784 25.6528 28.507V46.4931ZM48.7779 46.4931C48.7779 47.2027 48.2027 47.7778 47.4932 47.7778H29.507C28.7975 47.7778 28.2223 47.2027 28.2223 46.4931V28.507C28.2223 27.7975 28.7975 27.2223 29.507 27.2223H35.9307V37.5143L39.0076 37.5144L41.0697 34.7561L43.1316 37.5144H46.2086L46.2084 27.2223H47.4932C48.2027 27.2223 48.7779 27.7975 48.7779 28.507V46.4931ZM38.5 27.2223H43.6389V34.0772L41.0696 30.6402L38.5 34.0774V27.2223Z" fill="white"/>
</mask>
<g mask="url(#mask0_3_104)">
</g>
</svg>
