<svg width="76" height="76" viewBox="0 0 76 76" fill="none" xmlns="http://www.w3.org/2000/svg">
<rect width="76" height="76" rx="38" fill="#FA706C"/>
<path d="M34.6583 28.6709H37.2278C38.6468 28.6709 40.386 29.6591 41.1125 30.8782L44.2927 36.2153H50.075C50.7846 36.2153 51.3597 36.7905 51.3597 37.5C51.3597 38.2096 50.7846 38.7847 50.075 38.7847H44.1706L40.9902 44.1219C40.2638 45.3409 38.5246 46.3291 37.1055 46.3291H34.5361L39.0317 38.7847H30.0528L28.2099 41.936H25.6404L28.2347 37.5V37.4576L25.6652 33.064H28.2347L30.0776 36.2153H39.1538L34.6583 28.6709Z" fill="#2D2D2D"/>
<mask id="mask0_3_70" style="mask-type:alpha" maskUnits="userSpaceOnUse" x="25" y="28" width="27" height="19">
<path d="M34.6583 28.6709H37.2278C38.6468 28.6709 40.386 29.6591 41.1125 30.8782L44.2927 36.2153H50.075C50.7846 36.2153 51.3597 36.7905 51.3597 37.5C51.3597 38.2096 50.7846 38.7847 50.075 38.7847H44.1706L40.9902 44.1219C40.2638 45.3409 38.5246 46.3291 37.1055 46.3291H34.5361L39.0317 38.7847H30.0528L28.2099 41.936H25.6404L28.2347 37.5V37.4576L25.6652 33.064H28.2347L30.0776 36.2153H39.1538L34.6583 28.6709Z" fill="white"/>
</mask>
<g mask="url(#mask0_3_70)">
</g>
</svg>
